# xmcd CD database file
#
# Track frame offsets:
#	225
#	37252
#	95259
#	128405
#	181699
#
# Disc length: 2707 seconds
#
# Revision: 0
# Processed by: cddbd v1.5.2PL0 Copyright (c) Steve Scherf et al.
# Submitted via: CDex 1.51
#
DISCID=350a9005
DTITLE=Elton Dean Quintet - Boundaries
DYEAR=1980
DGENRE=Jazz
TTITLE0=Boundaries
TTITLE1=Oasis
TTITLE2=Basho
TTITLE3=Out of Bounds
TTITLE4=Fast News
EXTD=YEAR: 1980
EXTT0=
EXTT1=
EXTT2=
EXTT3=
EXTT4=
PLAYORDER=
